<mxfile host="Electron" modified="2025-08-11T10:59:57.690Z" agent="Mozilla/5.0 (Windows NT 10.0; Win64; x64) AppleWebKit/537.36 (KHTML, like Gecko) draw.io/24.2.5 Chrome/120.0.6099.109 Electron/28.1.0 Safari/537.36" etag="r-zyC5Gfim0InNeXS1BH" version="24.2.5" type="device">
  <diagram id="C5RBs43oDa-KdzZeNtuy" name="Page-1">
    <mxGraphModel dx="975" dy="688" grid="1" gridSize="10" guides="1" tooltips="1" connect="1" arrows="1" fold="1" page="1" pageScale="1" pageWidth="827" pageHeight="1169" math="0" shadow="0">
      <root>
        <mxCell id="WIyWlLk6GJQsqaUBKTNV-0" />
        <mxCell id="WIyWlLk6GJQsqaUBKTNV-1" parent="WIyWlLk6GJQsqaUBKTNV-0" />
        <mxCell id="Lxc2zo9YsPSFYeFa5kMc-0" value="cooldown" style="shape=umlLifeline;perimeter=lifelinePerimeter;whiteSpace=wrap;html=1;container=1;dropTarget=0;collapsible=0;recursiveResize=0;outlineConnect=0;portConstraint=eastwest;newEdgeStyle={&quot;curved&quot;:0,&quot;rounded&quot;:0};" vertex="1" parent="WIyWlLk6GJQsqaUBKTNV-1">
          <mxGeometry x="18" y="15" width="100" height="335" as="geometry" />
        </mxCell>
        <mxCell id="Lxc2zo9YsPSFYeFa5kMc-1" value="BWD" style="shape=umlLifeline;whiteSpace=wrap;html=1;container=1;dropTarget=0;collapsible=0;recursiveResize=0;outlineConnect=0;portConstraint=eastwest;newEdgeStyle={&quot;curved&quot;:0,&quot;rounded&quot;:0};points=[[0,0,0,0,5],[0,1,0,0,-5],[1,0,0,0,5],[1,1,0,0,-5]];perimeter=rectanglePerimeter;targetShapes=umlLifeline;participant=label;" vertex="1" parent="WIyWlLk6GJQsqaUBKTNV-1">
          <mxGeometry x="453" y="15" width="100" height="655" as="geometry" />
        </mxCell>
        <mxCell id="Lxc2zo9YsPSFYeFa5kMc-4" value="" style="html=1;points=[[0,0,0,0,5],[0,1,0,0,-5],[1,0,0,0,5],[1,1,0,0,-5]];perimeter=orthogonalPerimeter;outlineConnect=0;targetShapes=umlLifeline;portConstraint=eastwest;newEdgeStyle={&quot;curved&quot;:0,&quot;rounded&quot;:0};" vertex="1" parent="Lxc2zo9YsPSFYeFa5kMc-1">
          <mxGeometry x="45" y="344" width="10" height="52" as="geometry" />
        </mxCell>
        <mxCell id="Lxc2zo9YsPSFYeFa5kMc-41" value="" style="html=1;points=[[0,0,0,0,5],[0,1,0,0,-5],[1,0,0,0,5],[1,1,0,0,-5]];perimeter=orthogonalPerimeter;outlineConnect=0;targetShapes=umlLifeline;portConstraint=eastwest;newEdgeStyle={&quot;curved&quot;:0,&quot;rounded&quot;:0};" vertex="1" parent="Lxc2zo9YsPSFYeFa5kMc-1">
          <mxGeometry x="45" y="588" width="10" height="52" as="geometry" />
        </mxCell>
        <mxCell id="Lxc2zo9YsPSFYeFa5kMc-42" value="" style="html=1;points=[[0,0,0,0,5],[0,1,0,0,-5],[1,0,0,0,5],[1,1,0,0,-5]];perimeter=orthogonalPerimeter;outlineConnect=0;targetShapes=umlLifeline;portConstraint=eastwest;newEdgeStyle={&quot;curved&quot;:0,&quot;rounded&quot;:0};" vertex="1" parent="Lxc2zo9YsPSFYeFa5kMc-1">
          <mxGeometry x="46" y="416" width="10" height="40" as="geometry" />
        </mxCell>
        <mxCell id="Lxc2zo9YsPSFYeFa5kMc-43" value="&lt;font color=&quot;#ff0000&quot;&gt;input_tensor_grad&lt;/font&gt;" style="html=1;align=left;spacingLeft=2;endArrow=block;rounded=0;edgeStyle=orthogonalEdgeStyle;curved=0;rounded=0;" edge="1" target="Lxc2zo9YsPSFYeFa5kMc-42" parent="Lxc2zo9YsPSFYeFa5kMc-1">
          <mxGeometry relative="1" as="geometry">
            <mxPoint x="55" y="396" as="sourcePoint" />
            <Array as="points">
              <mxPoint x="85" y="426" />
            </Array>
          </mxGeometry>
        </mxCell>
        <mxCell id="Lxc2zo9YsPSFYeFa5kMc-7" value="wait and&amp;nbsp;&lt;span style=&quot;color: rgb(255, 0, 0); background-color: initial;&quot;&gt;prefetch&lt;/span&gt;" style="shape=umlLifeline;perimeter=lifelinePerimeter;whiteSpace=wrap;html=1;container=1;dropTarget=0;collapsible=0;recursiveResize=0;outlineConnect=0;portConstraint=eastwest;newEdgeStyle={&quot;curved&quot;:0,&quot;rounded&quot;:0};" vertex="1" parent="WIyWlLk6GJQsqaUBKTNV-1">
          <mxGeometry x="236" y="15" width="136" height="405" as="geometry" />
        </mxCell>
        <mxCell id="Lxc2zo9YsPSFYeFa5kMc-8" value="" style="html=1;points=[[0,0,0,0,5],[0,1,0,0,-5],[1,0,0,0,5],[1,1,0,0,-5]];perimeter=orthogonalPerimeter;outlineConnect=0;targetShapes=umlLifeline;portConstraint=eastwest;newEdgeStyle={&quot;curved&quot;:0,&quot;rounded&quot;:0};" vertex="1" parent="Lxc2zo9YsPSFYeFa5kMc-7">
          <mxGeometry x="63" y="88" width="10" height="52" as="geometry" />
        </mxCell>
        <mxCell id="Lxc2zo9YsPSFYeFa5kMc-36" value="" style="html=1;points=[[0,0,0,0,5],[0,1,0,0,-5],[1,0,0,0,5],[1,1,0,0,-5]];perimeter=orthogonalPerimeter;outlineConnect=0;targetShapes=umlLifeline;portConstraint=eastwest;newEdgeStyle={&quot;curved&quot;:0,&quot;rounded&quot;:0};" vertex="1" parent="Lxc2zo9YsPSFYeFa5kMc-7">
          <mxGeometry x="63" y="246.5" width="10" height="52" as="geometry" />
        </mxCell>
        <mxCell id="Lxc2zo9YsPSFYeFa5kMc-10" value="&lt;div style=&quot;color: rgb(204, 204, 204); background-color: rgb(31, 31, 31); font-family: Consolas, &amp;quot;Courier New&amp;quot;, monospace; font-size: 14px; line-height: 19px; white-space-collapse: preserve;&quot;&gt;&lt;div style=&quot;line-height: 19px;&quot;&gt;&lt;span style=&quot;color: #9cdcfe;&quot;&gt;bwd_wait_handle.wait&lt;/span&gt;&lt;/div&gt;&lt;/div&gt;" style="html=1;verticalAlign=bottom;endArrow=block;curved=0;rounded=0;entryX=0;entryY=0;entryDx=0;entryDy=5;entryPerimeter=0;" edge="1" parent="WIyWlLk6GJQsqaUBKTNV-1" source="Lxc2zo9YsPSFYeFa5kMc-0" target="Lxc2zo9YsPSFYeFa5kMc-8">
          <mxGeometry x="0.0005" width="80" relative="1" as="geometry">
            <mxPoint x="68" y="113" as="sourcePoint" />
            <mxPoint x="295" y="108" as="targetPoint" />
            <mxPoint as="offset" />
          </mxGeometry>
        </mxCell>
        <mxCell id="Lxc2zo9YsPSFYeFa5kMc-12" value="send data" style="shape=umlLifeline;whiteSpace=wrap;html=1;container=1;dropTarget=0;collapsible=0;recursiveResize=0;outlineConnect=0;portConstraint=eastwest;newEdgeStyle={&quot;curved&quot;:0,&quot;rounded&quot;:0};points=[[0,0,0,0,5],[0,1,0,0,-5],[1,0,0,0,5],[1,1,0,0,-5]];perimeter=rectanglePerimeter;targetShapes=umlLifeline;participant=label;" vertex="1" parent="WIyWlLk6GJQsqaUBKTNV-1">
          <mxGeometry x="697" y="14" width="100" height="805" as="geometry" />
        </mxCell>
        <mxCell id="Lxc2zo9YsPSFYeFa5kMc-38" value="" style="html=1;points=[[0,0,0,0,5],[0,1,0,0,-5],[1,0,0,0,5],[1,1,0,0,-5]];perimeter=orthogonalPerimeter;outlineConnect=0;targetShapes=umlLifeline;portConstraint=eastwest;newEdgeStyle={&quot;curved&quot;:0,&quot;rounded&quot;:0};" vertex="1" parent="Lxc2zo9YsPSFYeFa5kMc-12">
          <mxGeometry x="45" y="490" width="10" height="80" as="geometry" />
        </mxCell>
        <mxCell id="Lxc2zo9YsPSFYeFa5kMc-45" value="" style="html=1;points=[[0,0,0,0,5],[0,1,0,0,-5],[1,0,0,0,5],[1,1,0,0,-5]];perimeter=orthogonalPerimeter;outlineConnect=0;targetShapes=umlLifeline;portConstraint=eastwest;newEdgeStyle={&quot;curved&quot;:0,&quot;rounded&quot;:0};" vertex="1" parent="Lxc2zo9YsPSFYeFa5kMc-12">
          <mxGeometry x="46" y="640" width="10" height="140" as="geometry" />
        </mxCell>
        <mxCell id="Lxc2zo9YsPSFYeFa5kMc-46" value="self call" style="html=1;align=left;spacingLeft=2;endArrow=block;rounded=0;edgeStyle=orthogonalEdgeStyle;curved=0;rounded=0;entryX=1;entryY=0;entryDx=0;entryDy=5;entryPerimeter=0;" edge="1" target="Lxc2zo9YsPSFYeFa5kMc-45" parent="Lxc2zo9YsPSFYeFa5kMc-12">
          <mxGeometry relative="1" as="geometry">
            <mxPoint x="51" y="570" as="sourcePoint" />
            <Array as="points">
              <mxPoint x="81" y="570" />
              <mxPoint x="81" y="645" />
            </Array>
            <mxPoint x="56" y="600" as="targetPoint" />
          </mxGeometry>
        </mxCell>
        <mxCell id="Lxc2zo9YsPSFYeFa5kMc-27" value="&lt;div style=&quot;color: rgb(204, 204, 204); background-color: rgb(31, 31, 31); font-family: Consolas, &amp;quot;Courier New&amp;quot;, monospace; font-size: 14px; line-height: 19px; white-space-collapse: preserve;&quot;&gt;&lt;span style=&quot;color: #dcdcaa;&quot;&gt;backward_step_helper&lt;/span&gt;&lt;/div&gt;" style="html=1;verticalAlign=bottom;endArrow=block;curved=0;rounded=0;entryX=0;entryY=0;entryDx=0;entryDy=5;" edge="1" parent="WIyWlLk6GJQsqaUBKTNV-1" target="Lxc2zo9YsPSFYeFa5kMc-4" source="Lxc2zo9YsPSFYeFa5kMc-7">
          <mxGeometry relative="1" as="geometry">
            <mxPoint x="265.4473684210525" y="364" as="sourcePoint" />
          </mxGeometry>
        </mxCell>
        <mxCell id="Lxc2zo9YsPSFYeFa5kMc-33" value="" style="html=1;points=[[0,0,0,0,5],[0,1,0,0,-5],[1,0,0,0,5],[1,1,0,0,-5]];perimeter=orthogonalPerimeter;outlineConnect=0;targetShapes=umlLifeline;portConstraint=eastwest;newEdgeStyle={&quot;curved&quot;:0,&quot;rounded&quot;:0};" vertex="1" parent="WIyWlLk6GJQsqaUBKTNV-1">
          <mxGeometry x="299" y="181" width="10" height="52" as="geometry" />
        </mxCell>
        <mxCell id="Lxc2zo9YsPSFYeFa5kMc-34" value="&lt;div style=&quot;color: rgb(204, 204, 204); background-color: rgb(31, 31, 31); font-family: Consolas, &amp;quot;Courier New&amp;quot;, monospace; font-size: 14px; line-height: 19px; white-space-collapse: preserve;&quot;&gt;&lt;div style=&quot;line-height: 19px;&quot;&gt;&lt;div style=&quot;line-height: 19px;&quot;&gt;&lt;span style=&quot;color: #9cdcfe;&quot;&gt;recv_next_wait_handles&lt;/span&gt;&lt;/div&gt;&lt;/div&gt;&lt;/div&gt;" style="html=1;verticalAlign=bottom;endArrow=block;curved=0;rounded=0;" edge="1" parent="WIyWlLk6GJQsqaUBKTNV-1" target="Lxc2zo9YsPSFYeFa5kMc-33">
          <mxGeometry x="0.0005" width="80" relative="1" as="geometry">
            <mxPoint x="68" y="191" as="sourcePoint" />
            <mxPoint x="261" y="191" as="targetPoint" />
            <mxPoint as="offset" />
          </mxGeometry>
        </mxCell>
        <mxCell id="Lxc2zo9YsPSFYeFa5kMc-35" value="&lt;font color=&quot;#ff0000&quot;&gt;pop(0).wait()&lt;/font&gt;" style="text;html=1;align=center;verticalAlign=middle;whiteSpace=wrap;rounded=0;" vertex="1" parent="WIyWlLk6GJQsqaUBKTNV-1">
          <mxGeometry x="132" y="192" width="80" height="30" as="geometry" />
        </mxCell>
        <mxCell id="Lxc2zo9YsPSFYeFa5kMc-37" value="&lt;div style=&quot;color: rgb(204, 204, 204); background-color: rgb(31, 31, 31); font-family: Consolas, &amp;quot;Courier New&amp;quot;, monospace; font-size: 14px; line-height: 19px; white-space-collapse: preserve;&quot;&gt;&lt;span style=&quot;color: #dcdcaa;&quot;&gt;send_backward_recv_backward&lt;/span&gt;&lt;/div&gt;" style="html=1;verticalAlign=bottom;endArrow=block;curved=0;rounded=0;" edge="1" parent="WIyWlLk6GJQsqaUBKTNV-1" target="Lxc2zo9YsPSFYeFa5kMc-36">
          <mxGeometry width="80" relative="1" as="geometry">
            <mxPoint x="72" y="270" as="sourcePoint" />
            <mxPoint x="152" y="270" as="targetPoint" />
          </mxGeometry>
        </mxCell>
        <mxCell id="Lxc2zo9YsPSFYeFa5kMc-39" value="&lt;div style=&quot;color: rgb(204, 204, 204); background-color: rgb(31, 31, 31); font-family: Consolas, &amp;quot;Courier New&amp;quot;, monospace; font-size: 14px; line-height: 19px; white-space-collapse: preserve;&quot;&gt;&lt;span style=&quot;color: #dcdcaa;&quot;&gt;send_backward_recv_backward&lt;/span&gt;&lt;/div&gt;" style="html=1;verticalAlign=bottom;endArrow=block;curved=0;rounded=0;entryX=0;entryY=0;entryDx=0;entryDy=5;" edge="1" target="Lxc2zo9YsPSFYeFa5kMc-38" parent="WIyWlLk6GJQsqaUBKTNV-1">
          <mxGeometry relative="1" as="geometry">
            <mxPoint x="502.5" y="509" as="sourcePoint" />
          </mxGeometry>
        </mxCell>
        <mxCell id="Lxc2zo9YsPSFYeFa5kMc-44" value="&lt;div style=&quot;color: rgb(204, 204, 204); background-color: rgb(31, 31, 31); font-family: Consolas, &amp;quot;Courier New&amp;quot;, monospace; font-size: 14px; line-height: 19px; white-space-collapse: preserve;&quot;&gt;&lt;span style=&quot;color: #9cdcfe;&quot;&gt;send_prev_wait_handle&lt;/span&gt;.wait()&lt;/div&gt;" style="html=1;verticalAlign=bottom;endArrow=block;curved=0;rounded=0;exitX=0.49;exitY=0.737;exitDx=0;exitDy=0;exitPerimeter=0;entryX=1;entryY=0;entryDx=0;entryDy=5;entryPerimeter=0;" edge="1" parent="WIyWlLk6GJQsqaUBKTNV-1" source="Lxc2zo9YsPSFYeFa5kMc-12" target="Lxc2zo9YsPSFYeFa5kMc-41">
          <mxGeometry x="-0.0015" width="80" relative="1" as="geometry">
            <mxPoint x="547" y="680" as="sourcePoint" />
            <mxPoint x="627" y="680" as="targetPoint" />
            <mxPoint as="offset" />
          </mxGeometry>
        </mxCell>
        <mxCell id="Lxc2zo9YsPSFYeFa5kMc-47" value="&lt;div style=&quot;color: rgb(204, 204, 204); background-color: rgb(31, 31, 31); font-family: Consolas, &amp;quot;Courier New&amp;quot;, monospace; font-weight: normal; line-height: 19px; white-space: pre;&quot;&gt;&lt;div style=&quot;&quot;&gt;&lt;span style=&quot;color: rgb(156, 220, 254);&quot;&gt;&lt;font style=&quot;font-size: 12px;&quot;&gt;send_prev_wait_handle = &quot;send_prev&quot;&lt;/font&gt;&lt;/span&gt;&lt;/div&gt;&lt;div style=&quot;&quot;&gt;&lt;div style=&quot;line-height: 19px;&quot;&gt;&lt;span style=&quot;color: rgb(156, 220, 254);&quot;&gt;&lt;font style=&quot;font-size: 12px;&quot;&gt;recv_next_wait_handles.append(&quot;recv_next&quot;)&lt;/font&gt;&lt;/span&gt;&lt;/div&gt;&lt;/div&gt;&lt;/div&gt;" style="text;whiteSpace=wrap;html=1;" vertex="1" parent="WIyWlLk6GJQsqaUBKTNV-1">
          <mxGeometry x="450" y="680" width="280" height="50" as="geometry" />
        </mxCell>
        <mxCell id="Lxc2zo9YsPSFYeFa5kMc-48" value="&lt;div style=&quot;background-color: rgb(31, 31, 31); font-family: Consolas, &amp;quot;Courier New&amp;quot;, monospace; font-weight: normal; font-size: 14px; line-height: 19px; white-space: pre;&quot;&gt;&lt;div style=&quot;&quot;&gt;&lt;font color=&quot;#ff0000&quot;&gt;bwd_recv_buffer #update&lt;/font&gt;&lt;/div&gt;&lt;/div&gt;" style="text;whiteSpace=wrap;html=1;" vertex="1" parent="WIyWlLk6GJQsqaUBKTNV-1">
          <mxGeometry x="500" y="740" width="180" height="30" as="geometry" />
        </mxCell>
      </root>
    </mxGraphModel>
  </diagram>
</mxfile>
